<?xml version="1.0" encoding="UTF-8"?>
<!-- Created with Inkscape (http://www.inkscape.org/) -->
<svg id="svg172224" width="164.01mm" height="85.636mm" version="1.1" viewBox="0 0 164.01 85.636" xmlns="http://www.w3.org/2000/svg" xmlns:xlink="http://www.w3.org/1999/xlink">
 <defs id="defs172221">
  <filter id="filter160200" x="-.037626" y="-.041657" width="1.0753" height="1.0833" color-interpolation-filters="sRGB">
   <feGaussianBlur id="feGaussianBlur160202" stdDeviation="1.285875"/>
  </filter>
  <linearGradient id="linearGradient158698" x1="108.48" x2="89.958" gradientTransform="translate(-2.5414 66.182)" gradientUnits="userSpaceOnUse">
   <stop id="stop158692" stop-color="#9f9f9f" offset="0"/>
   <stop id="stop158694" stop-color="#9f9f9f" stop-opacity="0" offset="1"/>
  </linearGradient>
 </defs>
 <g id="layer1" transform="translate(-6.8079 -19.88)">
  <rect id="rect159730" x="9.894" y="28.347" width="82.021" height="74.083" rx="3.6726" ry="3.7987" fill="#505050" filter="url(#filter160200)" style="mix-blend-mode:normal"/>
  <rect id="rect51318" x="9.3649" y="27.817" width="82.021" height="74.083" rx="3.6726" ry="3.7987" fill="#f4f4f4"/>
  <text id="text8332" x="25.594103" y="25.001112" font-family="sans-serif" font-size="5.6444px" stroke-width=".26458" style="line-height:1.25" xml:space="preserve"><tspan id="tspan8330" x="25.594103" y="25.001112" font-family="Inconsolata" font-size="5.6444px" stroke-width=".26458">foo-1.2.3.tar.gz</tspan></text>
  <text id="text16262" x="36.805862" y="39.538677" font-family="sans-serif" font-size="5.6444px" stroke-width=".26458" style="line-height:1.25" xml:space="preserve"><tspan id="tspan16260" x="36.805862" y="39.538677" font-family="Inconsolata" font-size="5.6444px" stroke-width=".26458">foo-1.2.3</tspan></text>
  <path id="path17341" d="m30.532 51.63v13.229h9.2604" fill="none" stroke="#9e9e9e" stroke-width=".5"/>
  <text id="text17345" x="50.044052" y="52.776134" font-family="sans-serif" font-size="5.6444px" stroke-width=".26458" style="line-height:1.25" xml:space="preserve"><tspan id="tspan17343" x="50.044052" y="52.776134" font-family="Inconsolata" font-size="5.6444px" stroke-width=".26458">file1</tspan></text>
  <text id="text18765" x="50.044052" y="66.230743" font-family="sans-serif" font-size="5.6444px" stroke-width=".26458" style="line-height:1.25" xml:space="preserve"><tspan id="tspan18763" x="50.044052" y="66.230743" font-family="Inconsolata" font-size="5.6444px" stroke-width=".26458">file2</tspan></text>
  <path id="path18962" d="m30.532 41.047v10.583h9.2604" fill="none" stroke="#9e9e9e" stroke-width=".5"/>
  <path id="path19126" d="m30.532 64.859v13.229h9.2604" fill="none" stroke="#9e9e9e" stroke-width=".5"/>
  <path id="path19128" d="m43.761 82.057v9.2604h9.2604" fill="none" stroke="#9e9e9e" stroke-width=".5"/>
  <text id="text19138" x="50.145645" y="79.432518" font-family="sans-serif" font-size="5.6444px" stroke-width=".26458" style="line-height:1.25" xml:space="preserve"><tspan id="tspan19136" x="50.145645" y="79.432518" font-family="Inconsolata" font-size="5.6444px" stroke-width=".26458">dir1</tspan></text>
  <text id="text19142" x="63.193436" y="92.727501" font-family="sans-serif" font-size="5.6444px" stroke-width=".26458" style="line-height:1.25" xml:space="preserve"><tspan id="tspan19140" x="63.193436" y="92.727501" font-family="Inconsolata" font-size="5.6444px" stroke-width=".26458">file3</tspan></text>
  <path id="path26478" d="m17.302 27.817v10.583h9.2604" fill="none" stroke="#9e9e9e" stroke-width=".5"/>
  <g id="g7388" transform="matrix(.11358 0 0 .11358 10.902 18.971)">
   <path id="path7346" d="m28 8h50l30.043 29.918v74.059c0 4.4336-3.6094 8.0234-8.043 8.0234h-72c-4.4336 0-8-3.5664-8-8v-96c0-4.4336 3.5664-8 8-8z" fill="#ded4ca"/>
   <path id="path7348" d="m78 8v22c0 4.4336 3.6094 7.9219 8.043 7.9219l22-0.0039z" fill="#c9b8a7"/>
   <path id="path7350" d="m60 60v4h4v-2h4v-2zm4 4v2h-4v4h4v-2h4v-4zm0 6v2h-4v4h4v-2h4v-4zm0 6v2h-4v4h4v-2h4v-4zm0 6v2h-4v4h4v-2h4v-4zm0 6v2h-4v4h4v-2h4v-4zm0 6v2h-4v4h4v-2h4v-4zm0 6v2h-4v4h4v-2h4v-4zm0 6v2h-4v4h4v-2h4v-4zm0 6v2h-4v4h4v-2h4v-4z" fill="#fff"/>
   <g id="g7354" transform="translate(-8,-16)" clip-path="url(#c)" mask="url(#b)">
    <path id="path7352" d="m68 67c-2.2148 0-4 1.7852-4 4v10c0 2.2148 1.7852 4 4 4v8c0 1.1094 0.89062 2 2 2h4c1.1094 0 2-0.89062 2-2v-8c2.2148 0 4-1.7852 4-4v-10c0-2.2148-1.7852-4-4-4zm2 22h4v4h-4z"/>
   </g>
   <path id="path7356" d="m60 62v4h4v-2h4v-2zm4 4v2h-4v4h4v-2h4v-4zm0 6v2h-4v4h4v-2h4v-4zm0 6v2h-4v4h4v-2h4v-4zm0 6v2h-4v4h4v-2h4v-4zm0 6v2h-4v4h4v-2h4v-4zm0 6v2h-4v4h4v-2h4v-4zm0 6v2h-4v4h4v-2h4v-4zm0 6v2h-4v4h4v-2h4v-4zm0 6v2h-4v4h4v-2h4v-4z" fill="#c0bfbc"/>
   <path id="path7358" d="m62 57c-1.1094 0-2 0.89062-2 2v16c0 1.1094 0.89062 2 2 2h4c1.1094 0 2-0.89062 2-2v-16c0-1.1094-0.89062-2-2-2zm0 14h4v4h-4z" fill="#77767b"/>
   <path id="path7360" d="m58.504 49h10.992c1.3828 0 2.5039 1.1211 2.5039 2.5039v12.992c0 1.3828-1.1211 2.5039-2.5039 2.5039h-10.992c-1.3828 0-2.5039-1.1211-2.5039-2.5039v-12.992c0-1.3828 1.1211-2.5039 2.5039-2.5039z" fill="#77767b"/>
   <path id="path7362" d="m58.945 47h10.109c1.6289 0 2.9453 1.3164 2.9453 2.9453v12.109c0 1.6289-1.3164 2.9453-2.9453 2.9453h-10.109c-1.6289 0-2.9453-1.3164-2.9453-2.9453v-12.109c0-1.6289 1.3164-2.9453 2.9453-2.9453z" fill="#9a9996"/>
   <path id="path7364" d="m62 53c-1.1094 0-2 0.89062-2 2v18c0 1.1094 0.89062 2 2 2h4c1.1094 0 2-0.89062 2-2v-18c0-1.1094-0.89062-2-2-2zm0 16h4v4h-4z" fill="#fff"/>
   <path id="path7366" d="m64 59c1.1055 0 2-0.89453 2-2v-6c0-1.1055-0.89453-2-2-2s-2 0.89453-2 2v6c0 1.1055 0.89453 2 2 2z" fill="#77767b"/>
   <path id="path7368" d="m64 57c1.1055 0 2-0.89453 2-2v-4c0-1.1055-0.89453-2-2-2s-2 0.89453-2 2v4c0 1.1055 0.89453 2 2 2z" fill="#9a9996"/>
  </g>
  <g id="g7418" transform="matrix(.096154 0 0 .096154 24.188 30.97)">
   <path id="path7403" d="m21.977 12c-5.5273 0-9.9766 4.4609-9.9766 10v86.031c0 5.543 4.4492 10 9.9766 10h84.043c5.5312 0 9.9805-4.457 9.9805-10v-72.086c0-6.6289-5.3594-12-11.973-12h-46.027c-2.4531 0-4.6953-1.3867-5.7969-3.582l-1.5039-2.9922c-1.6562-3.293-5.0195-5.3711-8.6992-5.3711z" fill="#438de6"/>
   <path id="path7405" d="m65.977 36c-2.7461 0-5.2266 1.1016-7.0273 2.8906-2.2734 2.2539-5.3828 5.1094-8.6328 5.1094h-28.34c-5.5273 0-9.9766 4.4609-9.9766 10v54.031c0 5.543 4.4492 10 9.9766 10h84.043c5.5312 0 9.9805-4.457 9.9805-10v-62.031c0-5.5391-4.4492-10-9.9805-10z" fill="url(#a)"/>
   <path id="path7407" d="m65.977 32c-2.7461 0-5.2266 1.1016-7.0273 2.8906-2.2734 2.2539-5.3828 5.1094-8.6328 5.1094h-28.34c-5.5273 0-9.9766 4.4609-9.9766 10v55.977c0 5.5391 4.4492 10 9.9766 10h84.043c5.5312 0 9.9805-4.4609 9.9805-10v-63.977c0-5.5391-4.4492-10-9.9805-10z" fill="#a4caee"/>
  </g>
  <g id="g18775" transform="matrix(.096154 0 0 .096154 37.417 70.658)">
   <path id="path18769" d="m21.977 12c-5.5273 0-9.9766 4.4609-9.9766 10v86.031c0 5.543 4.4492 10 9.9766 10h84.043c5.5312 0 9.9805-4.457 9.9805-10v-72.086c0-6.6289-5.3594-12-11.973-12h-46.027c-2.4531 0-4.6953-1.3867-5.7969-3.582l-1.5039-2.9922c-1.6562-3.293-5.0195-5.3711-8.6992-5.3711z" fill="#438de6"/>
   <path id="path18771" d="m65.977 36c-2.7461 0-5.2266 1.1016-7.0273 2.8906-2.2734 2.2539-5.3828 5.1094-8.6328 5.1094h-28.34c-5.5273 0-9.9766 4.4609-9.9766 10v54.031c0 5.543 4.4492 10 9.9766 10h84.043c5.5312 0 9.9805-4.457 9.9805-10v-62.031c0-5.5391-4.4492-10-9.9805-10z" fill="url(#a)"/>
   <path id="path18773" d="m65.977 32c-2.7461 0-5.2266 1.1016-7.0273 2.8906-2.2734 2.2539-5.3828 5.1094-8.6328 5.1094h-28.34c-5.5273 0-9.9766 4.4609-9.9766 10v55.977c0 5.5391 4.4492 10 9.9766 10h84.043c5.5312 0 9.9805-4.4609 9.9805-10v-63.977c0-5.5391-4.4492-10-9.9805-10z" fill="#a4caee"/>
  </g>
  <g id="g28831" transform="translate(-2.5414 66.182)">
   <g id="g28578">
    <path id="path25381" d="m42.333-21.167h5.1111l3.0711 3.0583v7.5705c0 0.45322-0.36896 0.82018-0.82218 0.82018h-7.36c-0.45322 0-0.81778-0.36457-0.81778-0.81778v-9.8134c0-0.45321 0.36457-0.81778 0.81778-0.81778z" fill="#edece9" stroke-width=".10222"/>
   </g>
   <path id="path25383" d="m47.444-21.167v2.2489c0 0.45322 0.36896 0.8098 0.82218 0.8098l2.2489-3.99e-4z" fill="#aeaeae" stroke-width=".10222"/>
  </g>
  <g id="g28839" transform="translate(-2.5414 79.411)">
   <g id="g28835">
    <path id="path28833" d="m42.333-21.167h5.1111l3.0711 3.0583v7.5705c0 0.45322-0.36896 0.82018-0.82218 0.82018h-7.36c-0.45322 0-0.81778-0.36457-0.81778-0.81778v-9.8134c0-0.45321 0.36457-0.81778 0.81778-0.81778z" fill="#edece9" stroke-width=".10222"/>
   </g>
   <path id="path28837" d="m47.444-21.167v2.2489c0 0.45322 0.36896 0.8098 0.82218 0.8098l2.2489-3.99e-4z" fill="#aeaeae" stroke-width=".10222"/>
  </g>
  <g id="g28847" transform="translate(10.688 107.19)">
   <g id="g28843">
    <path id="path28841" d="m42.333-21.167h5.1111l3.0711 3.0583v7.5705c0 0.45322-0.36896 0.82018-0.82218 0.82018h-7.36c-0.45322 0-0.81778-0.36457-0.81778-0.81778v-9.8134c0-0.45321 0.36457-0.81778 0.81778-0.81778z" fill="#edece9" stroke-width=".10222"/>
   </g>
   <path id="path28845" d="m47.444-21.167v2.2489c0 0.45322 0.36896 0.8098 0.82218 0.8098l2.2489-3.99e-4z" fill="#aeaeae" stroke-width=".10222"/>
  </g>
  <text id="text28931" x="130.73296" y="39.538677" font-family="sans-serif" font-size="5.6444px" stroke-width=".26458" style="line-height:1.25" xml:space="preserve"><tspan id="tspan28929" x="130.73296" y="39.538677" font-family="Inconsolata" font-size="5.6444px" stroke-width=".26458">foo-1.2.3</tspan></text>
  <path id="path28933" d="m124.46 51.63v13.229h9.2604" fill="none" stroke="#9e9e9e" stroke-width=".5"/>
  <text id="text28937" x="143.97112" y="52.776134" font-family="sans-serif" font-size="5.6444px" stroke-width=".26458" style="line-height:1.25" xml:space="preserve"><tspan id="tspan28935" x="143.97112" y="52.776134" font-family="Inconsolata" font-size="5.6444px" stroke-width=".26458">file1</tspan></text>
  <text id="text28941" x="143.97112" y="66.230743" font-family="sans-serif" font-size="5.6444px" stroke-width=".26458" style="line-height:1.25" xml:space="preserve"><tspan id="tspan28939" x="143.97112" y="66.230743" font-family="Inconsolata" font-size="5.6444px" stroke-width=".26458">file2</tspan></text>
  <path id="path28943" d="m124.46 41.047v10.583h9.2604" fill="none" stroke="#9e9e9e" stroke-width=".5"/>
  <path id="path28945" d="m124.46 64.859v13.229h9.2604" fill="none" stroke="#9e9e9e" stroke-width=".5"/>
  <path id="path28947" d="m137.69 82.057v9.2604h9.2604" fill="none" stroke="#9e9e9e" stroke-width=".5"/>
  <text id="text28951" x="144.07272" y="79.432518" font-family="sans-serif" font-size="5.6444px" stroke-width=".26458" style="line-height:1.25" xml:space="preserve"><tspan id="tspan28949" x="144.07272" y="79.432518" font-family="Inconsolata" font-size="5.6444px" stroke-width=".26458">dir1</tspan></text>
  <text id="text28955" x="157.12053" y="92.727501" font-family="sans-serif" font-size="5.6444px" stroke-width=".26458" style="line-height:1.25" xml:space="preserve"><tspan id="tspan28953" x="157.12053" y="92.727501" font-family="Inconsolata" font-size="5.6444px" stroke-width=".26458">file3</tspan></text>
  <g id="g28963" transform="matrix(.096154 0 0 .096154 118.11 30.97)">
   <path id="path28957" d="m21.977 12c-5.5273 0-9.9766 4.4609-9.9766 10v86.031c0 5.543 4.4492 10 9.9766 10h84.043c5.5312 0 9.9805-4.457 9.9805-10v-72.086c0-6.6289-5.3594-12-11.973-12h-46.027c-2.4531 0-4.6953-1.3867-5.7969-3.582l-1.5039-2.9922c-1.6562-3.293-5.0195-5.3711-8.6992-5.3711z" fill="#438de6"/>
   <path id="path28959" d="m65.977 36c-2.7461 0-5.2266 1.1016-7.0273 2.8906-2.2734 2.2539-5.3828 5.1094-8.6328 5.1094h-28.34c-5.5273 0-9.9766 4.4609-9.9766 10v54.031c0 5.543 4.4492 10 9.9766 10h84.043c5.5312 0 9.9805-4.457 9.9805-10v-62.031c0-5.5391-4.4492-10-9.9805-10z" fill="url(#a)"/>
   <path id="path28961" d="m65.977 32c-2.7461 0-5.2266 1.1016-7.0273 2.8906-2.2734 2.2539-5.3828 5.1094-8.6328 5.1094h-28.34c-5.5273 0-9.9766 4.4609-9.9766 10v55.977c0 5.5391 4.4492 10 9.9766 10h84.043c5.5312 0 9.9805-4.4609 9.9805-10v-63.977c0-5.5391-4.4492-10-9.9805-10z" fill="#a4caee"/>
  </g>
  <g id="g28971" transform="matrix(.096154 0 0 .096154 131.34 70.658)">
   <path id="path28965" d="m21.977 12c-5.5273 0-9.9766 4.4609-9.9766 10v86.031c0 5.543 4.4492 10 9.9766 10h84.043c5.5312 0 9.9805-4.457 9.9805-10v-72.086c0-6.6289-5.3594-12-11.973-12h-46.027c-2.4531 0-4.6953-1.3867-5.7969-3.582l-1.5039-2.9922c-1.6562-3.293-5.0195-5.3711-8.6992-5.3711z" fill="#438de6"/>
   <path id="path28967" d="m65.977 36c-2.7461 0-5.2266 1.1016-7.0273 2.8906-2.2734 2.2539-5.3828 5.1094-8.6328 5.1094h-28.34c-5.5273 0-9.9766 4.4609-9.9766 10v54.031c0 5.543 4.4492 10 9.9766 10h84.043c5.5312 0 9.9805-4.457 9.9805-10v-62.031c0-5.5391-4.4492-10-9.9805-10z" fill="url(#a)"/>
   <path id="path28969" d="m65.977 32c-2.7461 0-5.2266 1.1016-7.0273 2.8906-2.2734 2.2539-5.3828 5.1094-8.6328 5.1094h-28.34c-5.5273 0-9.9766 4.4609-9.9766 10v55.977c0 5.5391 4.4492 10 9.9766 10h84.043c5.5312 0 9.9805-4.4609 9.9805-10v-63.977c0-5.5391-4.4492-10-9.9805-10z" fill="#a4caee"/>
  </g>
  <g id="g28979" transform="translate(91.386 66.182)">
   <g id="g28975">
    <path id="path28973" d="m42.333-21.167h5.1111l3.0711 3.0583v7.5705c0 0.45322-0.36896 0.82018-0.82218 0.82018h-7.36c-0.45322 0-0.81778-0.36457-0.81778-0.81778v-9.8134c0-0.45321 0.36457-0.81778 0.81778-0.81778z" fill="#edece9" stroke-width=".10222"/>
   </g>
   <path id="path28977" d="m47.444-21.167v2.2489c0 0.45322 0.36896 0.8098 0.82218 0.8098l2.2489-3.99e-4z" fill="#aeaeae" stroke-width=".10222"/>
  </g>
  <g id="g28987" transform="translate(91.386 79.411)">
   <g id="g28983">
    <path id="path28981" d="m42.333-21.167h5.1111l3.0711 3.0583v7.5705c0 0.45322-0.36896 0.82018-0.82218 0.82018h-7.36c-0.45322 0-0.81778-0.36457-0.81778-0.81778v-9.8134c0-0.45321 0.36457-0.81778 0.81778-0.81778z" fill="#edece9" stroke-width=".10222"/>
   </g>
   <path id="path28985" d="m47.444-21.167v2.2489c0 0.45322 0.36896 0.8098 0.82218 0.8098l2.2489-3.99e-4z" fill="#aeaeae" stroke-width=".10222"/>
  </g>
  <g id="g28995" transform="translate(104.61 107.19)">
   <g id="g28991">
    <path id="path28989" d="m42.333-21.167h5.1111l3.0711 3.0583v7.5705c0 0.45322-0.36896 0.82018-0.82218 0.82018h-7.36c-0.45322 0-0.81778-0.36457-0.81778-0.81778v-9.8134c0-0.45321 0.36457-0.81778 0.81778-0.81778z" fill="#edece9" stroke-width=".10222"/>
   </g>
   <path id="path28993" d="m47.444-21.167v2.2489c0 0.45322 0.36896 0.8098 0.82218 0.8098l2.2489-3.99e-4z" fill="#aeaeae" stroke-width=".10222"/>
  </g>
  <path id="path154280" d="m91.386 55.599h3.9688v-2.6458l10.583 11.906-10.583 13.229v-2.6458h-3.9688z" fill="url(#linearGradient158698)"/>
 </g>
</svg>
