<?xml version="1.0" encoding="UTF-8"?>
<!-- Created with Inkscape (http://www.inkscape.org/) -->
<svg id="svg5" width="268.28mm" height="109.5mm" version="1.1" viewBox="0 0 268.28 109.5" xmlns="http://www.w3.org/2000/svg" xmlns:xlink="http://www.w3.org/1999/xlink">
 <defs id="defs2">
  <linearGradient id="linearGradient891118">
   <stop id="stop891114" offset="0"/>
   <stop id="stop891116" stop-color="#fff" offset="1"/>
  </linearGradient>
  <radialGradient id="radialGradient120361" cx="86.327" cy="40.421" r="10.392" gradientTransform="matrix(-7.8333 3.5603 -1.0352 -2.2776 792.59 -158.16)" gradientUnits="userSpaceOnUse">
   <stop id="stop38639" offset="0"/>
   <stop id="stop38641" stop-color="#323232" stop-opacity="0" offset="1"/>
  </radialGradient>
  <linearGradient id="linearGradient891082" x1="72.91" x2="62.315" y1="51.075" y2="32.049" gradientTransform="translate(-14.807 -7.7828)" gradientUnits="userSpaceOnUse" xlink:href="#linearGradient891118"/>
  <linearGradient id="linearGradient891464" x1="72.91" x2="62.315" y1="51.075" y2="32.049" gradientTransform="translate(-1.8167 -.2825)" gradientUnits="userSpaceOnUse" xlink:href="#linearGradient891118"/>
 </defs>
 <g id="g1068" transform="translate(-2.8582)">
  <path id="path126984" d="m105.38 69.217-7.7942 4.5 0.86603 0.5-1.7321 1-3.4641-2" fill="none" stroke="#b1b1b1" stroke-linecap="round" stroke-linejoin="round" stroke-width="5"/>
  <path id="path125998" d="m14.445 61.717 51.962 30 7.7942-4.5 0.86603 0.5 1.732-1" fill="none" stroke="#b1b1b1" stroke-linecap="round" stroke-linejoin="round" stroke-width="5"/>
  <text id="text104277" x="137.64908" y="66.741257" fill="#c14f1c" font-family="sans-serif" font-size="33.253px" stroke-width=".83133" style="line-height:1.25" xml:space="preserve"><tspan id="tspan104275" x="137.64908" y="66.741257" fill="#c14f1c" font-family="Raleway" stroke-width=".83133"><tspan id="tspan119584" fill="#3f3f3f" font-weight="300" stroke-width=".83133">Fatbuild</tspan><tspan id="tspan1104139" font-weight="600">r</tspan></tspan></text>
  <path id="path94871" d="m5.2322 72.125 8.6603 5 90.933-52.5-25.981-15" fill="none" stroke="#c14f1c" stroke-width="1.065"/>
  <path id="path94873" d="m5.2319 97.125 121.24-70" fill="none" stroke="#c14f1c" stroke-width="1.065"/>
  <g id="g2374" transform="translate(14.59 10.63)">
   <path id="path2352" d="m21.819 58.494 6.9282 4v-8c1e-6 -5-6.9282-10-6.9282-6v10" fill="#607489" stroke="#515151" stroke-width=".26458px"/>
   <path id="path2354" d="m23.551 60.494v-13" fill="none" stroke="#515151" stroke-width=".26458px"/>
   <path id="path2356" d="m25.284 61.494v-13" fill="none" stroke="#515151" stroke-width=".26458px"/>
   <path id="path2358" d="m27.016 62.494v-13" fill="none" stroke="#515151" stroke-width=".26458px"/>
   <path id="path2360" d="m20.087 59.494 1.7321-1 6.9282 4v2l-8.6603-5" fill="#d1774e" stroke="#d1774e" stroke-width=".065"/>
   <path id="path2362" d="m20.953 47.994 7.7942 4.5" fill="none" stroke="#515151" stroke-width=".26458px"/>
   <path id="path2364" d="m20.953 49.994 8.6603 5" fill="none" stroke="#515151" stroke-width=".26458px"/>
   <path id="path2366" d="m20.953 51.994 8.6603 5" fill="none" stroke="#515151" stroke-width=".26458px"/>
   <path id="path2368" d="m20.953 53.994 8.6603 5" fill="none" stroke="#515151" stroke-width=".26458px"/>
   <path id="path2370" d="m20.953 55.994 8.6603 5" fill="none" stroke="#515151" stroke-width=".265"/>
   <path id="path2372" d="m20.087 59.494 1.7321-1v-10c0.06011-0.69731 1.0415-1.0749 1.6971-0.68712 0.03499-0.31288-3.4291-2.3129-3.4291 1.6871l-1e-6 10" fill="#8b350e" stroke="#8b350e" stroke-width=".065"/>
  </g>
  <path id="path94875" d="m48.533 107.12-17.321-10 40.703-23.5v-11l23.383-12.5-0.86603 10.5 23.383-13.5" fill="none" stroke="#c14f1c" stroke-width="1.065"/>
  <path id="path4658" d="m104.82 29.625-38.971 22.5v40l9.526-5.4999v-25l17.32-10v22l2.5983 1.5002 9.526-5.4999z" fill="#a44013"/>
  <path id="path41746" d="m96.165 50.625-3.4641 1v22l3.4641 2z" fill="#a54833"/>
  <g id="g2350" transform="translate(-.13301 2.1306)">
   <path id="path88691" d="m21.819 58.494 6.9282 4v-8c1e-6 -5-6.9282-10-6.9282-6v10" fill="#607489" stroke="#515151" stroke-width=".26458px"/>
   <path id="path88693" d="m23.551 60.494v-13" fill="none" stroke="#515151" stroke-width=".26458px"/>
   <path id="path88695" d="m25.284 61.494v-13" fill="none" stroke="#515151" stroke-width=".26458px"/>
   <path id="path88697" d="m27.016 62.494v-13" fill="none" stroke="#515151" stroke-width=".26458px"/>
   <path id="path88685" d="m20.087 59.494 1.7321-1 6.9282 4v2l-8.6603-5" fill="#d1774e" stroke="#d1774e" stroke-width=".065"/>
   <path id="path88699" d="m20.953 47.994 7.7942 4.5" fill="none" stroke="#515151" stroke-width=".26458px"/>
   <path id="path88701" d="m20.953 49.994 8.6603 5" fill="none" stroke="#515151" stroke-width=".26458px"/>
   <path id="path88703" d="m20.953 51.994 8.6603 5" fill="none" stroke="#515151" stroke-width=".26458px"/>
   <path id="path88705" d="m20.953 53.994 8.6603 5" fill="none" stroke="#515151" stroke-width=".26458px"/>
   <path id="path88707" d="m20.953 55.994 8.6603 5" fill="none" stroke="#515151" stroke-width=".265"/>
   <path id="path88687" d="m20.087 59.494 1.7321-1v-10c0.06011-0.69731 1.0415-1.0749 1.6971-0.68712 0.03499-0.31288-3.4291-2.3129-3.4291 1.6871l-1e-6 10" fill="#8b350e" stroke="#8b350e" stroke-width=".065"/>
  </g>
  <g id="g2398" transform="translate(29.312 19.13)">
   <path id="path2376" d="m21.819 58.494 6.9282 4v-8c1e-6 -5-6.9282-10-6.9282-6v10" fill="#607489" stroke="#515151" stroke-width=".26458px"/>
   <path id="path2378" d="m23.551 60.494v-13" fill="none" stroke="#515151" stroke-width=".26458px"/>
   <path id="path2380" d="m25.284 61.494v-13" fill="none" stroke="#515151" stroke-width=".26458px"/>
   <path id="path2382" d="m27.016 62.494v-13" fill="none" stroke="#515151" stroke-width=".26458px"/>
   <path id="path2384" d="m20.087 59.494 1.7321-1 6.9282 4v2l-8.6603-5" fill="#d1774e" stroke="#d1774e" stroke-width=".065"/>
   <path id="path2386" d="m20.953 47.994 7.7942 4.5" fill="none" stroke="#515151" stroke-width=".26458px"/>
   <path id="path2388" d="m20.953 49.994 8.6603 5" fill="none" stroke="#515151" stroke-width=".26458px"/>
   <path id="path2390" d="m20.953 51.994 8.6603 5" fill="none" stroke="#515151" stroke-width=".26458px"/>
   <path id="path2392" d="m20.953 53.994 8.6603 5" fill="none" stroke="#515151" stroke-width=".26458px"/>
   <path id="path2394" d="m20.953 55.994 8.6603 5" fill="none" stroke="#515151" stroke-width=".265"/>
   <path id="path2396" d="m20.087 59.494 1.7321-1v-10c0.06011-0.69731 1.0415-1.0749 1.6971-0.68712 0.03499-0.31288-3.4291-2.3129-3.4291 1.6871l-1e-6 10" fill="#8b350e" stroke="#8b350e" stroke-width=".065"/>
  </g>
  <path id="path891" d="m13.892 37.125v25l51.962 30v-40l-12.99 7.4998v-15l-12.99 7.4998v-15l-12.99 7.5003zm8.1189 12.556c2.3884-0.04927 5.9943 3.0766 6.6032 6.9438v9.9999l-8.6599-4.9997v-10c0.2571-1.3359 1.0483-1.9227 2.0567-1.9436zm14.723 8.5003c2.3884-0.04927 5.9943 3.0761 6.6032 6.9432v10l-8.6599-5.0002v-9.9999c0.2571-1.3359 1.0483-1.9227 2.0567-1.9436zm14.723 8.4997c2.3884-0.04927 5.9943 3.0766 6.6032 6.9438v9.9999l-8.6605-4.9997v-10c0.2571-1.3359 1.0488-1.9227 2.0572-1.9436z" fill="#c14f1c" stroke="#c14f1c" stroke-width=".065"/>
  <path id="path1950" d="m13.892 37.125 38.971-22.5" fill="none" stroke="#000" stroke-width=".26458px"/>
  <path id="path7142" d="m13.892 37.125 38.971-22.5 12.99 7.5 12.99-7.5v15l12.99-7.5v15l12.99-7.5-51.962 30v-15l-12.99 7.5v-15l-12.99 7.5z" fill="#384858"/>
  <path id="path2684" d="m75.38 86.625v-25l17.32-10v22l3.4641 2-19.919 11.5" fill="url(#radialGradient120361)"/>
  <path id="path5582" d="m23.418 2.625c0.86603-3.5 7.7942-3.5 8.6603 0l1.732 34c-0.86602 5.5-11.258 5.5-12.124 0z" fill="#adadad"/>
  <ellipse id="ellipse6866" cx="27.773" cy="3.0633" rx="3.6175" ry="2.4377" fill="#484848"/>
  <path id="path91243" d="m73.648 87.625 0.86603 0.5v-27l23.383-13.5-0.86603-0.5-23.383 13.5z" fill="#df6b37"/>
  <path id="path91044" d="m74.514 88.125v-27l23.383-13.5v27l-1.7321 1v-25l-19.919 11.5v25l-1.732 1" fill="#e4baa7"/>
  <path id="path891080" d="m39.873 52.125v-15l38.971-22.5v15z" fill="url(#linearGradient891082)" opacity=".27243"/>
  <path id="path891462" d="m52.864 59.625v-15l38.971-22.5v15z" fill="url(#linearGradient891464)" opacity=".27243"/>
  <circle id="path2774" cx="5.2322" cy="72.125" r="2.374" fill="#c14f1c"/>
  <circle id="circle2972" cx="5.2322" cy="97.125" r="2.374" fill="#c14f1c"/>
  <circle id="circle2974" cx="48.533" cy="107.12" r="2.374" fill="#c14f1c"/>
  <circle id="circle2976" cx="117.82" cy="47.125" r="2.374" fill="#c14f1c"/>
  <circle id="circle2978" cx="126.48" cy="27.125" r="2.374" fill="#c14f1c"/>
  <circle id="circle2980" cx="78.844" cy="9.6249" r="2.374" fill="#c14f1c"/>
 </g>
</svg>
